HIERARCHY
ROOT joint_Root
{
	OFFSET 0.0 0.0 0.0
	CHANNELS 6 Xposition Yposition Zposition Zrotation Xrotation Yrotation 
	JOINT Hips
	{
		OFFSET 4.5925 91.4895 -427.239
		CHANNELS 6 Xposition Yposition Zposition Zrotation Xrotation Yrotation 
		JOINT Spine
		{
			OFFSET 15.7357 0.0 0.0
			CHANNELS 6 Xposition Yposition Zposition Zrotation Xrotation Yrotation 
			JOINT Chest
			{
				OFFSET 8.98455 -0.406207 0.0
				CHANNELS 6 Xposition Yposition Zposition Zrotation Xrotation Yrotation 
				JOINT Neck
				{
					OFFSET 16.3773 0.0 0.0
					CHANNELS 6 Xposition Yposition Zposition Zrotation Xrotation Yrotation 
					JOINT Head
					{
						OFFSET 6.45672 0.0 0.0
						CHANNELS 6 Xposition Yposition Zposition Zrotation Xrotation Yrotation 
						End Site
						{
							OFFSET 0.0 0.0 0.0
						}
					}
				}
				JOINT Shoulder_L
				{
					OFFSET 12.9942 -0.242716 4.98039
					CHANNELS 6 Xposition Yposition Zposition Zrotation Xrotation Yrotation 
					JOINT UpperArm_L
					{
						OFFSET 5.34809 0.0 0.0
						CHANNELS 6 Xposition Yposition Zposition Zrotation Xrotation Yrotation 
						JOINT LowerArm_L
						{
							OFFSET 24.3286 1.87007e-05 0.0
							CHANNELS 6 Xposition Yposition Zposition Zrotation Xrotation Yrotation 
							JOINT Hand_L
							{
								OFFSET 22.2916 0.0 0.0
								CHANNELS 6 Xposition Yposition Zposition Zrotation Xrotation Yrotation 
								End Site
								{
									OFFSET 0.0 0.0 0.0
								}
							}
						}
					}
				}
				JOINT Shoulder_R
				{
					OFFSET 12.9945 -0.242716 -4.98039
					CHANNELS 6 Xposition Yposition Zposition Zrotation Xrotation Yrotation 
					JOINT UpperArm_R
					{
						OFFSET -5.34813 0.0 0.0
						CHANNELS 6 Xposition Yposition Zposition Zrotation Xrotation Yrotation 
						JOINT LowerArm_R
						{
							OFFSET -24.3289 0.000322201 0.0
							CHANNELS 6 Xposition Yposition Zposition Zrotation Xrotation Yrotation 
							JOINT Hand_R
							{
								OFFSET -22.2915 -0.000108084 0.0
								CHANNELS 6 Xposition Yposition Zposition Zrotation Xrotation Yrotation 
								End Site
								{
									OFFSET 0.0 0.0 0.0
								}
							}
						}
					}
				}
			}
		}
		JOINT UpperLeg_L
		{
			OFFSET -2.19248 -6.46944 0.0
			CHANNELS 6 Xposition Yposition Zposition Zrotation Xrotation Yrotation 
			JOINT LowerLeg_L
			{
				OFFSET 39.0811 0.0 -1.23785e-05
				CHANNELS 6 Xposition Yposition Zposition Zrotation Xrotation Yrotation 
				JOINT Foot_L
				{
					OFFSET 40.9854 0.0 -1.26872e-05
					CHANNELS 6 Xposition Yposition Zposition Zrotation Xrotation Yrotation 
					JOINT Toes_L
					{
						OFFSET 11.7543 0.0 0.0
						CHANNELS 6 Xposition Yposition Zposition Zrotation Xrotation Yrotation 
						End Site
						{
							OFFSET 0.0 0.0 0.0
						}
					}
				}
			}
		}
		JOINT UpperLeg_R
		{
			OFFSET -2.19251 6.46944 0.0
			CHANNELS 6 Xposition Yposition Zposition Zrotation Xrotation Yrotation 
			JOINT LowerLeg_R
			{
				OFFSET -39.0811 -0.00228153 -0.0401928
				CHANNELS 6 Xposition Yposition Zposition Zrotation Xrotation Yrotation 
				JOINT Foot_R
				{
					OFFSET -40.9854 0.0 0.0
					CHANNELS 6 Xposition Yposition Zposition Zrotation Xrotation Yrotation 
					JOINT Toes_R
					{
						OFFSET -11.7543 0.0 0.0
						CHANNELS 6 Xposition Yposition Zposition Zrotation Xrotation Yrotation 
						End Site
						{
							OFFSET 0.0 0.0 0.0
						}
					}
				}
			}
		}
	}
}
MOTION
Frames:	5
Frame Time:	0.0333333
0.000000 0.000000 0.000000 0.000000 0.000000 -0.000000 -5.610070 91.435300 1.583780 89.390300 8.313670 2.245680 15.735700 0.000005 -0.000001 88.306400 86.011600 -92.004500 8.984550 -0.406207 -0.000000 0.218292 0.007564 -7.391210 16.377300 -0.000001 -0.000001 3.192770 -7.760320 7.320160 6.456720 -0.000001 -0.000000 -3.669230 -4.186060 -2.305820 12.994200 -0.242716 4.980390 -91.524700 4.173000 -69.908700 5.348090 -0.000007 -0.000001 -62.321700 16.331500 -5.464840 24.328600 0.000019 0.000005 7.623950 19.085700 -22.262300 22.291600 -0.000001 0.000005 12.799000 5.160820 3.683210 12.994500 -0.242716 -4.980390 94.599000 -10.695700 -66.567000 -5.348130 -0.000001 -0.000004 -49.435400 -69.290800 -89.914800 -24.328900 0.000322 -0.000009 -5.078330 -6.328790 -38.866700 -22.291500 -0.000108 -0.000004 17.046900 5.450870 -4.670360 -2.192480 -6.469440 -0.000000 -172.252000 -7.203050 -6.615490 39.081100 -0.000007 -0.000012 -0.174152 0.367698 25.343800 40.985400 -0.000006 -0.000013 -2.467080 12.670300 -66.610400 11.754300 -0.000000 0.000003 -0.000159 -0.001529 -16.635600 -2.192510 6.469440 -0.000001 -179.635000 26.665300 177.695000 -39.081100 -0.002282 -0.040193 0.016726 -0.029314 24.586600 -40.985400 0.000008 0.000006 9.328920 9.580810 -71.619700 -11.754300 -0.000006 -0.000006 -0.003051 -0.041178 -18.247800
0.000000 0.000000 0.000000 0.000000 0.000000 -0.000000 -5.467690 91.441400 1.597120 89.380100 7.725520 2.259000 15.735700 0.000005 -0.000001 87.819200 85.996500 -91.376500 8.984550 -0.406207 -0.000000 0.242833 -0.071351 -7.109570 16.377300 -0.000001 -0.000001 3.113230 -7.603390 7.238320 6.456720 -0.000001 -0.000000 -3.755480 -3.973700 -2.220610 12.994200 -0.242716 4.980390 -91.577600 4.301830 -69.838800 5.348090 -0.000007 -0.000001 -62.469400 17.162900 -5.800690 24.328600 0.000019 0.000005 7.694700 18.496300 -23.068700 22.291600 -0.000001 0.000005 12.855300 5.165990 3.558130 12.994500 -0.242716 -4.980390 94.321900 -10.181500 -66.851500 -5.348130 -0.000001 -0.000004 -46.658700 -68.757900 -85.618400 -24.328900 0.000322 -0.000009 -6.059860 -6.689310 -42.336600 -22.291500 -0.000108 -0.000004 17.524600 5.454690 -4.808400 -2.192480 -6.469440 -0.000000 -172.317000 -7.603840 -6.468250 39.081100 -0.000007 -0.000012 -0.176617 0.372566 25.363800 40.985400 -0.000006 -0.000013 -2.392900 12.481800 -66.712900 11.754300 -0.000000 0.000003 -0.000151 -0.001460 -16.633000 -2.192510 6.469440 -0.000001 -179.787000 26.513000 177.725000 -39.081100 -0.002282 -0.040193 0.016152 -0.028060 24.587400 -40.985400 0.000008 0.000006 9.355280 10.026500 -71.674900 -11.754300 -0.000006 -0.000006 -0.002986 -0.040444 -18.217900
0.000000 0.000000 0.000000 0.000000 0.000000 -0.000000 -5.279910 91.440200 1.623430 89.366200 6.975330 2.382530 15.735700 0.000005 -0.000001 86.983800 85.948200 -90.376400 8.984550 -0.406207 -0.000000 0.329300 -0.206363 -6.780010 16.377300 -0.000001 -0.000001 2.954900 -7.328710 6.995250 6.456720 -0.000001 -0.000000 -3.789260 -3.751590 -2.094230 12.994200 -0.242716 4.980390 -91.637600 4.445010 -69.752200 5.348090 -0.000007 -0.000001 -62.669300 18.269500 -6.127650 24.328600 0.000019 0.000005 7.660130 18.046100 -23.468700 22.291600 -0.000001 0.000005 12.797800 5.170530 3.447720 12.994500 -0.242716 -4.980390 93.905600 -9.410860 -67.338300 -5.348130 -0.000001 -0.000004 -43.374300 -67.651900 -80.119000 -24.328900 0.000322 -0.000009 -7.256640 -6.727560 -47.377200 -22.291500 -0.000108 -0.000004 17.984700 5.456250 -4.864360 -2.192480 -6.469440 -0.000000 -172.398000 -8.035870 -6.174470 39.081100 -0.000007 -0.000012 -0.177169 0.372543 25.434400 40.985400 -0.000006 -0.000013 -2.302990 12.165000 -66.893500 11.754300 -0.000000 0.000003 -0.000157 -0.001510 -16.634900 -2.192510 6.469440 -0.000001 179.968000 26.236300 177.860000 -39.081100 -0.002282 -0.040193 0.015391 -0.026323 24.648100 -40.985400 0.000008 0.000006 9.345200 10.556500 -71.750800 -11.754300 -0.000006 -0.000006 -0.002952 -0.040058 -18.202200
0.000000 0.000000 0.000000 0.000000 0.000000 -0.000000 -5.042600 91.434000 1.648880 89.365500 5.955760 2.567940 15.735700 0.000005 -0.000001 85.974400 85.879500 -89.184900 8.984550 -0.406207 -0.000000 0.452313 -0.373670 -6.415030 16.377300 -0.000001 -0.000001 2.658270 -6.940710 6.645320 6.456720 -0.000001 -0.000000 -3.769400 -3.413440 -2.032310 12.994200 -0.242716 4.980390 -91.709100 4.605640 -69.615200 5.348090 -0.000007 -0.000001 -62.963800 19.442400 -6.505130 24.328600 0.000019 0.000005 7.571000 17.949100 -23.330200 22.291600 -0.000001 0.000005 12.631100 5.177940 3.266470 12.994500 -0.242716 -4.980390 93.446200 -8.595670 -68.055500 -5.348130 -0.000001 -0.000004 -39.775800 -65.751400 -73.140000 -24.328900 0.000322 -0.000009 -8.551950 -6.186170 -54.368500 -22.291500 -0.000108 -0.000004 18.933400 5.458080 -4.929450 -2.192480 -6.469440 -0.000000 -172.508000 -8.542030 -5.780200 39.081100 -0.000007 -0.000012 -0.181012 0.379024 25.528200 40.985400 -0.000006 -0.000013 -2.219850 11.676200 -67.117000 11.754300 -0.000000 0.000003 -0.000157 -0.001511 -16.634900 -2.192510 6.469440 -0.000001 179.647000 25.822200 178.057000 -39.081100 -0.002282 -0.040193 0.014183 -0.023633 24.701400 -40.985400 0.000008 0.000006 9.328780 11.177700 -71.888500 -11.754300 -0.000006 -0.000006 -0.002753 -0.037778 -18.109400
0.000000 0.000000 0.000000 0.000000 0.000000 -0.000000 -4.769670 91.416500 1.678780 89.359800 4.813760 2.852870 15.735700 0.000005 -0.000001 84.188200 85.778400 -87.216200 8.984550 -0.406207 -0.000000 0.623511 -0.666136 -6.047710 16.377300 -0.000001 -0.000001 2.357560 -6.422130 6.201500 6.456720 -0.000001 -0.000000 -3.822400 -2.940690 -1.910680 12.994200 -0.242716 4.980390 -91.789800 4.789020 -69.480100 5.348090 -0.000007 -0.000001 -63.249700 20.722400 -6.746740 24.328600 0.000019 0.000005 7.509370 18.014600 -23.085500 22.291600 -0.000001 0.000005 12.333400 5.174980 3.339010 12.994500 -0.242716 -4.980390 92.906200 -7.710150 -69.274900 -5.348130 -0.000001 -0.000004 -35.995800 -63.042100 -64.742300 -24.328900 0.000322 -0.000009 -9.610930 -4.980090 -62.856500 -22.291500 -0.000108 -0.000004 19.844600 5.463260 -5.120190 -2.192480 -6.469440 -0.000000 -172.588000 -9.333910 -5.295760 39.081100 -0.000007 -0.000012 -0.182622 0.379444 25.701300 40.985400 -0.000006 -0.000013 -2.068090 11.353000 -67.391200 11.754300 -0.000000 0.000003 -0.000164 -0.001567 -16.637000 -2.192510 6.469440 -0.000001 179.274000 25.216800 178.312000 -39.081100 -0.002282 -0.040193 0.009795 -0.014009 24.830600 -40.985400 0.000008 0.000006 9.250830 11.768800 -72.035400 -11.754300 -0.000006 -0.000006 -0.002717 -0.037357 -18.092300
